<svg width="286" height="242" viewBox="0 0 286 242" fill="none" xmlns="http://www.w3.org/2000/svg">
<g filter="url(#filter0_d_83_3245)">
<path d="M63.312 77.032H77.904V129.64H92.368V142.568H77.904V161H62.928V142.568H20.816V131.176L63.312 77.032ZM63.696 99.432L38.736 131.176H63.696V99.432ZM138.701 162.792C131.874 162.792 125.858 161.213 120.653 158.056C115.49 154.899 111.437 150.12 108.493 143.72C105.592 137.32 104.141 129.256 104.141 119.528C104.141 109.757 105.592 101.672 108.493 95.272C111.437 88.872 115.49 84.1147 120.653 81C125.858 77.8427 131.874 76.264 138.701 76.264C145.442 76.264 151.394 77.8427 156.557 81C161.762 84.1147 165.816 88.872 168.717 95.272C171.661 101.672 173.133 109.757 173.133 119.528C173.133 129.256 171.661 137.32 168.717 143.72C165.816 150.12 161.762 154.899 156.557 158.056C151.394 161.213 145.442 162.792 138.701 162.792ZM138.701 148.968C144.674 148.968 149.304 146.451 152.589 141.416C155.874 136.339 157.517 129.043 157.517 119.528C157.517 110.013 155.874 102.717 152.589 97.64C149.304 92.52 144.674 89.96 138.701 89.96C132.685 89.96 128.013 92.52 124.685 97.64C121.4 102.717 119.757 110.013 119.757 119.528C119.757 129.043 121.4 136.339 124.685 141.416C128.013 146.451 132.685 148.968 138.701 148.968ZM228.437 77.032H243.029V129.64H257.493V142.568H243.029V161H228.053V142.568H185.941V131.176L228.437 77.032ZM228.821 99.432L203.861 131.176H228.821V99.432Z" fill="black" fill-opacity="0.5"/>
</g>
<defs>
<filter id="filter0_d_83_3245" x="-2" y="-20" width="298" height="290" filterUnits="userSpaceOnUse" color-interpolation-filters="sRGB">
<feFlood flood-opacity="0" result="BackgroundImageFix"/>
<feColorMatrix in="SourceAlpha" type="matrix" values="0 0 0 0 0 0 0 0 0 0 0 0 0 0 0 0 0 0 127 0" result="hardAlpha"/>
<feOffset dx="4" dy="4"/>
<feGaussianBlur stdDeviation="12"/>
<feColorMatrix type="matrix" values="0 0 0 0 0.00392157 0 0 0 0 0.0666667 0 0 0 0 0.14902 0 0 0 0.2 0"/>
<feBlend mode="normal" in2="BackgroundImageFix" result="effect1_dropShadow_83_3245"/>
<feBlend mode="normal" in="SourceGraphic" in2="effect1_dropShadow_83_3245" result="shape"/>
</filter>
</defs>
</svg>
